# xmcd CD database file
#
# Track frame offsets:
#	150
#	16424
#	33394
#	48879
#	60653
#	76696
#	95161
#	109443
#	124591
#	143436
#	156196
#	175578
#
# Disc length: 2642 seconds
#
# Revision: 0
# Processed by: cddbd v1.5.2PL0 Copyright (c) Steve Scherf et al.
# Submitted via: CDex 1.51
#
DISCID=900a500c
DTITLE=Dierks Bentley - Up On The Ridge
DYEAR=2010
DGENRE=Country
TTITLE0=Up On The Ridge
TTITLE1=Fallin' For You
TTITLE2=Senor (Tales Of Yankee Power)
TTITLE3=Rovin' Gambler
TTITLE4=Draw Me A Map
TTITLE5=Bad Angel
TTITLE6=Fiddlin' Around
TTITLE7=You're Dead To Me
TTITLE8=Pride (In The Name Of Love)
TTITLE9=Love Grows Wild
TTITLE10=Bottle To The Bottom
TTITLE11=Down In The Mine
EXTD=YEAR: 2010
EXTT0=
EXTT1=
EXTT2=
EXTT3=
EXTT4=
EXTT5=
EXTT6=
EXTT7=
EXTT8=
EXTT9=
EXTT10=
EXTT11=
PLAYORDER=
